<svg xmlns="http://www.w3.org/2000/svg" version="1.1" preserveAspectRatio="none" width="500" height="500" viewBox="0 0 500 500"><rect width="100%" height="100%" fill="#141414" fill-opacity="0"/><svg xmlns="http://www.w3.org/2000/svg" xmlns:xlink="http://www.w3.org/1999/xlink" viewBox="64.2168 192.4 397.5978 40" width="333" height="33.50119140498262" x="83.5px" y="233.2494px" preserveAspectRatio="none"><defs/><style>.background {fill:#FFFFFF;fill-opacity:1;}.companyName {fill:#7011F5;fill-opacity:1;}.icon3-str {stroke:#7011F5;stroke-opacity:1;}.shapeStroke-str {stroke:#E5E5E5;stroke-opacity:1;}</style><g opacity="1" transform="rotate(0 64.2168 192.4)">
<svg width="397.5978" height="40" x="64.2168" y="192.4" version="1.1" preserveAspectRatio="none" viewBox="0 0 397.5978 40">
  <rect x="0" y="0" width="397.5978" height="40" class="companyName shapeStroke-str" style="stroke-width:0;" rx="0%" ry="0%"/>
</svg>
</g><g opacity="1" transform="rotate(0 66.2168 194.4)">
<svg width="393.5978" height="36" x="66.2168" y="194.4" version="1.1" preserveAspectRatio="none" viewBox="2.76 -29.4 328 30">
  <g transform="matrix(1 0 0 1 0 0)" class="background"><path id="id-D6z1nYkh13" d="M10.40 0L10.40 0L4.20 0Q3.44 0 3.10-0.34Q2.76-0.68 2.76-1.44L2.76-1.44L2.76-27.36Q2.76-28.12 3.10-28.46Q3.44-28.80 4.20-28.80L4.20-28.80L10.40-28.80Q11.16-28.80 11.50-28.46Q11.84-28.12 11.84-27.36L11.84-27.36L11.84-18.68L18.52-18.68L18.52-27.36Q18.52-28.12 18.86-28.46Q19.20-28.80 19.96-28.80L19.96-28.80L26.16-28.80Q26.92-28.80 27.26-28.46Q27.60-28.12 27.60-27.36L27.60-27.36L27.60-1.44Q27.60-0.68 27.26-0.34Q26.92 0 26.16 0L26.16 0L19.96 0Q19.20 0 18.86-0.34Q18.52-0.68 18.52-1.44L18.52-1.44L18.52-10.32L11.84-10.32L11.84-1.44Q11.84-0.68 11.50-0.34Q11.16 0 10.40 0Z M57.52-21.20L57.52-7.56Q57.52-5.72 56.98-4.22Q56.44-2.72 55.06-1.66Q53.68-0.60 51.26 0Q48.84 0.60 45.12 0.60L45.12 0.60Q41.40 0.60 38.96 0Q36.52-0.60 35.14-1.66Q33.76-2.72 33.22-4.22Q32.68-5.72 32.68-7.56L32.68-7.56L32.68-21.20Q32.68-23.04 33.22-24.54Q33.76-26.04 35.14-27.12Q36.52-28.20 38.96-28.80Q41.40-29.40 45.12-29.40L45.12-29.40Q48.84-29.40 51.26-28.80Q53.68-28.20 55.06-27.12Q56.44-26.04 56.98-24.54Q57.52-23.04 57.52-21.20L57.52-21.20ZM41.76-19.76L41.76-9Q41.76-8.20 42.36-7.66Q42.96-7.12 45.12-7.12L45.12-7.12Q47.28-7.12 47.88-7.66Q48.48-8.20 48.48-9L48.48-9L48.48-19.76Q48.48-20.52 47.88-21.06Q47.28-21.60 45.12-21.60L45.12-21.60Q42.96-21.60 42.36-21.06Q41.76-20.52 41.76-19.76L41.76-19.76Z M74.64-21.60L71.64-21.60L71.64-16.48L74.64-16.48Q75.68-16.48 76.04-17.02Q76.40-17.56 76.40-18.36L76.40-18.36L76.40-19.72Q76.40-20.52 76.04-21.06Q75.68-21.60 74.64-21.60L74.64-21.60ZM70.20 0L70.20 0L64.04 0Q63.28 0 62.94-0.34Q62.60-0.68 62.60-1.44L62.60-1.44L62.60-27.36Q62.60-28.12 62.94-28.46Q63.28-28.80 64.04-28.80L64.04-28.80L77.36-28.80Q81.84-28.80 83.54-26.94Q85.24-25.08 85.24-22.12L85.24-22.12L85.24-20.28Q85.24-18.60 84.74-17.42Q84.24-16.24 83-15.72L83-15.72Q85.16-15.48 86.50-13.96Q87.84-12.44 87.84-9.92L87.84-9.92L87.84-1.44Q87.84-0.68 87.50-0.34Q87.16 0 86.40 0L86.40 0L80.20 0Q79.44 0 79.10-0.34Q78.76-0.68 78.76-1.44L78.76-1.44L78.76-7.56Q78.76-8.44 78.42-8.86Q78.08-9.28 77.24-9.28L77.24-9.28L71.64-9.28L71.64-1.44Q71.64-0.68 71.30-0.34Q70.96 0 70.20 0Z M102.76-20.40L102.76-20.40L100.88-14.32L107.16-14.32L105.28-20.40Q105.12-20.76 104.94-20.92Q104.76-21.08 104.52-21.08L104.52-21.08L103.52-21.08Q103.28-21.08 103.10-20.92Q102.92-20.76 102.76-20.40ZM100.48-7.04L100.48-1.44Q100.48-0.68 100.14-0.34Q99.80 0 99.04 0L99.04 0L93.16 0Q92.40 0 92.06-0.34Q91.72-0.68 91.72-1.44L91.72-1.44L91.72-12Q91.72-13.20 92.10-14.76Q92.48-16.32 93.28-18.40L93.28-18.40L96.76-27.48Q97-28.16 97.50-28.48Q98-28.80 98.80-28.80L98.80-28.80L109.56-28.80Q110.32-28.80 110.82-28.48Q111.32-28.16 111.56-27.48L111.56-27.48L115.04-18.40Q115.84-16.32 116.22-14.76Q116.60-13.20 116.60-12L116.60-12L116.60-1.44Q116.60-0.68 116.26-0.34Q115.92 0 115.16 0L115.16 0L109.12 0Q108.32 0 107.94-0.34Q107.56-0.68 107.56-1.44L107.56-1.44L107.56-7.04L100.48-7.04Z M145.24 0L145.24 0L131.76 0Q131 0 130.66-0.34Q130.32-0.68 130.32-1.44L130.32-1.44L130.32-27.36Q130.32-28.12 130.66-28.46Q131-28.80 131.76-28.80L131.76-28.80L145.24-28.80Q150.24-28.80 152.66-26.80Q155.08-24.80 155.08-20.64L155.08-20.64L155.08-8.16Q155.08-4 152.66-2Q150.24 0 145.24 0ZM144.16-21.16L139.40-21.16L139.40-7.56L144.16-7.56Q145.12-7.56 145.58-8.04Q146.04-8.52 146.04-9.52L146.04-9.52L146.04-19.24Q146.04-20.24 145.58-20.70Q145.12-21.16 144.16-21.16L144.16-21.16Z M184.56-21.20L184.56-7.56Q184.56-5.72 184.02-4.22Q183.48-2.72 182.10-1.66Q180.72-0.60 178.30 0Q175.88 0.60 172.16 0.60L172.16 0.60Q168.44 0.60 166 0Q163.56-0.60 162.18-1.66Q160.80-2.72 160.26-4.22Q159.72-5.72 159.72-7.56L159.72-7.56L159.72-21.20Q159.72-23.04 160.26-24.54Q160.80-26.04 162.18-27.12Q163.56-28.20 166-28.80Q168.44-29.40 172.16-29.40L172.16-29.40Q175.88-29.40 178.30-28.80Q180.72-28.20 182.10-27.12Q183.48-26.04 184.02-24.54Q184.56-23.04 184.56-21.20L184.56-21.20ZM168.80-19.76L168.80-9Q168.80-8.20 169.40-7.66Q170-7.12 172.16-7.12L172.16-7.12Q174.32-7.12 174.92-7.66Q175.52-8.20 175.52-9L175.52-9L175.52-19.76Q175.52-20.52 174.92-21.06Q174.32-21.60 172.16-21.60L172.16-21.60Q170-21.60 169.40-21.06Q168.80-20.52 168.80-19.76L168.80-19.76Z M206.28 0L206.28 0L200.08 0Q199.32 0 198.98-0.34Q198.64-0.68 198.64-1.44L198.64-1.44L198.64-27.36Q198.64-28.12 198.98-28.46Q199.32-28.80 200.08-28.80L200.08-28.80L217.92-28.80Q218.68-28.80 219.02-28.46Q219.36-28.12 219.36-27.36L219.36-27.36L219.36-22.60Q219.36-21.84 219.02-21.50Q218.68-21.16 217.92-21.16L217.92-21.16L207.72-21.16L207.72-17L214.68-17Q215.44-17 215.78-16.66Q216.12-16.32 216.12-15.56L216.12-15.56L216.12-10.76Q216.12-10 215.78-9.66Q215.44-9.32 214.68-9.32L214.68-9.32L207.72-9.32L207.72-1.44Q207.72-0.68 207.38-0.34Q207.04 0 206.28 0Z M241.20 0L224.16 0Q223.40 0 223.06-0.34Q222.72-0.68 222.72-1.44L222.72-1.44L222.72-6.20Q222.72-6.96 223.06-7.30Q223.40-7.64 224.16-7.64L224.16-7.64L228.12-7.64L228.12-21.08L224.16-21.08Q223.40-21.08 223.06-21.42Q222.72-21.76 222.72-22.52L222.72-22.52L222.72-27.36Q222.72-28.12 223.06-28.46Q223.40-28.80 224.16-28.80L224.16-28.80L241.20-28.80Q241.96-28.80 242.30-28.46Q242.64-28.12 242.64-27.36L242.64-27.36L242.64-22.52Q242.64-21.76 242.30-21.42Q241.96-21.08 241.20-21.08L241.20-21.08L237.32-21.08L237.32-7.64L241.20-7.64Q241.96-7.64 242.30-7.30Q242.64-6.96 242.64-6.20L242.64-6.20L242.64-1.44Q242.64-0.68 242.30-0.34Q241.96 0 241.20 0L241.20 0Z M269.36 0L269.36 0L249.00 0Q248.24 0 247.90-0.34Q247.56-0.68 247.56-1.44L247.56-1.44L247.56-27.36Q247.56-28.12 247.90-28.46Q248.24-28.80 249.00-28.80L249.00-28.80L255.20-28.80Q255.96-28.80 256.30-28.46Q256.64-28.12 256.64-27.36L256.64-27.36L256.64-7.56L262.12-7.56L262.12-14.04Q262.12-14.80 262.46-15.14Q262.80-15.48 263.56-15.48L263.56-15.48L269.36-15.48Q270.12-15.48 270.46-15.14Q270.80-14.80 270.80-14.04L270.80-14.04L270.80-1.44Q270.80-0.68 270.46-0.34Q270.12 0 269.36 0Z M282.76 0L282.76 0L276.80 0Q276.04 0 275.70-0.34Q275.36-0.68 275.36-1.44L275.36-1.44L275.36-27.36Q275.36-28.12 275.70-28.46Q276.04-28.80 276.80-28.80L276.80-28.80L283.24-28.80Q283.88-28.80 284.30-28.52Q284.72-28.24 285.08-27.60L285.08-27.60L288.68-21.08Q288.88-20.72 289.02-20.56Q289.16-20.40 289.40-20.40L289.40-20.40L289.76-20.40Q290.00-20.40 290.14-20.56Q290.28-20.72 290.48-21.08L290.48-21.08L294.04-27.60Q294.40-28.24 294.82-28.52Q295.24-28.80 295.88-28.80L295.88-28.80L302.36-28.80Q303.12-28.80 303.46-28.46Q303.80-28.12 303.80-27.36L303.80-27.36L303.80-1.44Q303.80-0.68 303.46-0.34Q303.12 0 302.36 0L302.36 0L296.20 0Q295.44 0 295.10-0.34Q294.76-0.68 294.76-1.44L294.76-1.44L294.76-15.52L292.40-11.16Q292.04-10.48 291.54-10.18Q291.04-9.88 290.28-9.88L290.28-9.88L288.68-9.88Q287.92-9.88 287.42-10.18Q286.92-10.48 286.56-11.16L286.56-11.16L284.20-15.52L284.20-1.44Q284.20-0.68 283.86-0.34Q283.52 0 282.76 0Z M329.32 0L329.32 0L310.76 0Q310.00 0 309.66-0.34Q309.32-0.68 309.32-1.44L309.32-1.44L309.32-27.36Q309.32-28.12 309.66-28.46Q310.00-28.80 310.76-28.80L310.76-28.80L329.32-28.80Q330.08-28.80 330.42-28.46Q330.76-28.12 330.76-27.36L330.76-27.36L330.76-22.68Q330.76-21.92 330.42-21.58Q330.08-21.24 329.32-21.24L329.32-21.24L318.28-21.24L318.28-18.16L326.08-18.16Q326.84-18.16 327.18-17.82Q327.52-17.48 327.52-16.72L327.52-16.72L327.52-12.44Q327.52-11.68 327.18-11.34Q326.84-11 326.08-11L326.08-11L318.28-11L318.28-7.56L329.32-7.56Q330.08-7.56 330.42-7.22Q330.76-6.88 330.76-6.12L330.76-6.12L330.76-1.44Q330.76-0.68 330.42-0.34Q330.08 0 329.32 0Z"/></g>
</svg>
</g></svg></svg>