<svg xmlns="http://www.w3.org/2000/svg" version="1.1" preserveAspectRatio="none" width="500" height="500" viewBox="0 0 500 500"><rect width="100%" height="100%" fill="#4FD28A" fill-opacity="0"/><svg xmlns="http://www.w3.org/2000/svg" xmlns:xlink="http://www.w3.org/1999/xlink" viewBox="109.8222 139.2612 302.2455 185.6499" width="333" height="204.54040407549493" x="83.5px" y="147.7298px" preserveAspectRatio="none"><defs/><style>.background-str {stroke:#4FD28A;stroke-opacity:1;}.companyName {fill:#27272F;fill-opacity:1;}.companyName-floo {flood-color:#27272F;flood-opacity:1;}</style><defs>
      <filter x="109.8222" y="139.2612" width="302.2455" height="185.6499" id="LwNMZKse4" filterUnits="userSpaceOnUse" primitiveUnits="userSpaceOnUse" color-interpolation-filters="sRGB">
        
    <feGaussianBlur in="SourceGraphic" stdDeviation="0"/>
    <feOffset dx="5.649913026651346" dy="5.649913026651346" result="a78MWH4APjZW"/>
    <feFlood flood-color="#27272F" flood-opacity="1" in="a78MWH4APjZW"/>
    <feComposite in2="a78MWH4APjZW" operator="in" result="F83Tz5kBRLy"/><feMerge result="MeQ0ibhIwYX"><feMergeNode in="F83Tz5kBRLy"/><feMergeNode in="SourceGraphic"/></feMerge>
      </filter></defs><g filter="url(#LwNMZKse4)"><g opacity="1" transform="rotate(0 109.8222 139.2612)">
<svg width="296.5956" height="180" x="109.8222" y="139.2612" version="1.1" preserveAspectRatio="none" viewBox="1.4 -28.32 99.91999999999999 60.64">
  <g transform="matrix(1 0 0 1 0 0)" class="companyName"><defs><path id="id-D6z1nYkh10" d="M1.88 0Q1.68 0 1.54-0.14Q1.40-0.28 1.40-0.48L1.40-0.48L1.40-27.52Q1.40-27.72 1.54-27.86Q1.68-28 1.88-28L1.88-28L7.44-28Q7.84-28 8-27.64L8-27.64L11.16-21.36Q11.28-21.20 11.40-21.36L11.40-21.36L14.56-27.64Q14.76-28 15.12-28L15.12-28L20.72-28Q20.92-28 21.06-27.86Q21.20-27.72 21.20-27.52L21.20-27.52L21.20-0.48Q21.20-0.28 21.06-0.14Q20.92 0 20.72 0L20.72 0L15.04 0Q14.84 0 14.70-0.14Q14.56-0.28 14.56-0.48L14.56-0.48L14.56-17.32Q14.56-17.48 14.48-17.50Q14.40-17.52 14.32-17.40L14.32-17.40L11.56-12.20Q11.40-11.84 11.32-11.84L11.32-11.84Q11.24-11.84 11.04-12.20L11.04-12.20L8.28-17.48Q8.20-17.60 8.12-17.58Q8.04-17.56 8.04-17.40L8.04-17.40L8.04-0.48Q8.04-0.28 7.90-0.14Q7.76 0 7.56 0L7.56 0L1.88 0Z M39.16-22.80Q39.16-22.60 39.02-22.46Q38.88-22.32 38.68-22.32L38.68-22.32L30.64-22.32Q30.44-22.32 30.44-22.12L30.44-22.12L30.44-17.08Q30.44-16.88 30.64-16.88L30.64-16.88L35.04-16.88Q35.24-16.88 35.38-16.74Q35.52-16.60 35.52-16.40L35.52-16.40L35.52-11.64Q35.52-11.44 35.38-11.30Q35.24-11.16 35.04-11.16L35.04-11.16L30.64-11.16Q30.44-11.16 30.44-10.96L30.44-10.96L30.44-5.88Q30.44-5.68 30.64-5.68L30.64-5.68L38.68-5.68Q38.88-5.68 39.02-5.54Q39.16-5.40 39.16-5.20L39.16-5.20L39.16-0.48Q39.16-0.28 39.02-0.14Q38.88 0 38.68 0L38.68 0L24.28 0Q24.08 0 23.94-0.14Q23.80-0.28 23.80-0.48L23.80-0.48L23.80-27.52Q23.80-27.72 23.94-27.86Q24.08-28 24.28-28L24.28-28L38.68-28Q38.88-28 39.02-27.86Q39.16-27.72 39.16-27.52L39.16-27.52L39.16-22.80Z M49.64 0.32Q47.16 0.32 45.28-0.74Q43.40-1.80 42.36-3.72Q41.32-5.64 41.32-8.16L41.32-8.16L41.32-27.52Q41.32-27.72 41.46-27.86Q41.60-28 41.80-28L41.80-28L47.48-28Q47.68-28 47.82-27.86Q47.96-27.72 47.96-27.52L47.96-27.52L47.96-7.52Q47.96-6.56 48.42-5.96Q48.88-5.36 49.64-5.36L49.64-5.36Q50.40-5.36 50.86-5.96Q51.32-6.56 51.32-7.52L51.32-7.52L51.32-27.52Q51.32-27.72 51.46-27.86Q51.60-28 51.80-28L51.80-28L57.48-28Q57.68-28 57.82-27.86Q57.96-27.72 57.96-27.52L57.96-27.52L57.96-8.16Q57.96-5.64 56.92-3.72Q55.88-1.80 54-0.74Q52.12 0.32 49.64 0.32L49.64 0.32Z M68.52 0.32Q66.08 0.32 64.22-0.62Q62.36-1.56 61.34-3.26Q60.32-4.96 60.32-7.12L60.32-7.12L60.32-8.48Q60.32-8.68 60.46-8.82Q60.60-8.96 60.80-8.96L60.80-8.96L66.44-8.96Q66.64-8.96 66.78-8.82Q66.92-8.68 66.92-8.48L66.92-8.48L66.92-7.44Q66.92-6.48 67.36-5.92Q67.80-5.36 68.52-5.36L68.52-5.36Q69.24-5.36 69.72-5.90Q70.20-6.44 70.20-7.28L70.20-7.28Q70.20-8.20 69.48-8.94Q68.76-9.68 66.60-11.24L66.60-11.24Q64.60-12.68 63.32-13.82Q62.04-14.96 61.12-16.66Q60.20-18.36 60.20-20.60L60.20-20.60Q60.20-22.88 61.22-24.64Q62.24-26.40 64.08-27.36Q65.92-28.32 68.32-28.32L68.32-28.32Q70.76-28.32 72.64-27.34Q74.52-26.36 75.54-24.58Q76.56-22.80 76.56-20.48L76.56-20.48L76.56-19.52Q76.56-19.32 76.42-19.18Q76.28-19.04 76.08-19.04L76.08-19.04L70.48-19.04Q70.28-19.04 70.14-19.18Q70-19.32 70-19.52L70-19.52L70-20.64Q70-21.52 69.54-22.08Q69.08-22.64 68.32-22.64L68.32-22.64Q67.64-22.64 67.18-22.08Q66.72-21.52 66.72-20.60L66.72-20.60Q66.72-19.60 67.42-18.80Q68.12-18 70.20-16.48L70.20-16.48Q72.72-14.60 74-13.44Q75.28-12.28 76-10.86Q76.72-9.44 76.72-7.52L76.72-7.52Q76.72-3.92 74.46-1.80Q72.20 0.32 68.52 0.32L68.52 0.32Z M16.76 9.20Q16.76 9.40 16.62 9.54Q16.48 9.68 16.28 9.68L16.28 9.68L8.24 9.68Q8.04 9.68 8.04 9.88L8.04 9.88L8.04 14.92Q8.04 15.12 8.24 15.12L8.24 15.12L12.64 15.12Q12.84 15.12 12.98 15.26Q13.12 15.40 13.12 15.60L13.12 15.60L13.12 20.36Q13.12 20.56 12.98 20.70Q12.84 20.84 12.64 20.84L12.64 20.84L8.24 20.84Q8.04 20.84 8.04 21.04L8.04 21.04L8.04 31.52Q8.04 31.72 7.90 31.86Q7.76 32.00 7.56 32.00L7.56 32.00L1.88 32.00Q1.68 32.00 1.54 31.86Q1.40 31.72 1.40 31.52L1.40 31.52L1.40 4.48Q1.40 4.28 1.54 4.14Q1.68 4.00 1.88 4.00L1.88 4.00L16.28 4.00Q16.48 4.00 16.62 4.14Q16.76 4.28 16.76 4.48L16.76 4.48L16.76 9.20Z M18.96 32.00Q18.76 32.00 18.62 31.86Q18.48 31.72 18.48 31.52L18.48 31.52L18.48 4.48Q18.48 4.28 18.62 4.14Q18.76 4.00 18.96 4.00L18.96 4.00L24.64 4.00Q24.84 4.00 24.98 4.14Q25.12 4.28 25.12 4.48L25.12 4.48L25.12 31.52Q25.12 31.72 24.98 31.86Q24.84 32.00 24.64 32.00L24.64 32.00L18.96 32.00Z M28.36 32.00Q28.16 32.00 28.02 31.86Q27.88 31.72 27.88 31.52L27.88 31.52L27.88 4.48Q27.88 4.28 28.02 4.14Q28.16 4.00 28.36 4.00L28.36 4.00L34.04 4.00Q34.24 4.00 34.38 4.14Q34.52 4.28 34.52 4.48L34.52 4.48L34.52 26.12Q34.52 26.32 34.72 26.32L34.72 26.32L42.88 26.32Q43.08 26.32 43.22 26.46Q43.36 26.60 43.36 26.80L43.36 26.80L43.36 31.52Q43.36 31.72 43.22 31.86Q43.08 32.00 42.88 32.00L42.88 32.00L28.36 32.00Z M45.68 32.00Q45.48 32.00 45.34 31.86Q45.20 31.72 45.20 31.52L45.20 31.52L45.20 4.48Q45.20 4.28 45.34 4.14Q45.48 4.00 45.68 4.00L45.68 4.00L51.24 4.00Q51.64 4.00 51.80 4.36L51.80 4.36L54.96 10.64Q55.08 10.80 55.20 10.64L55.20 10.64L58.36 4.36Q58.56 4.00 58.92 4.00L58.92 4.00L64.52 4.00Q64.72 4.00 64.86 4.14Q65 4.28 65 4.48L65 4.48L65 31.52Q65 31.72 64.86 31.86Q64.72 32.00 64.52 32.00L64.52 32.00L58.84 32.00Q58.64 32.00 58.50 31.86Q58.36 31.72 58.36 31.52L58.36 31.52L58.36 14.68Q58.36 14.52 58.28 14.50Q58.20 14.48 58.12 14.60L58.12 14.60L55.36 19.80Q55.20 20.16 55.12 20.16L55.12 20.16Q55.04 20.16 54.84 19.80L54.84 19.80L52.08 14.52Q52.00 14.40 51.92 14.42Q51.84 14.44 51.84 14.60L51.84 14.60L51.84 31.52Q51.84 31.72 51.70 31.86Q51.56 32.00 51.36 32.00L51.36 32.00L45.68 32.00Z M82.96 9.20Q82.96 9.40 82.82 9.54Q82.68 9.68 82.48 9.68L82.48 9.68L74.44 9.68Q74.24 9.68 74.24 9.88L74.24 9.88L74.24 14.92Q74.24 15.12 74.44 15.12L74.44 15.12L78.84 15.12Q79.04 15.12 79.18 15.26Q79.32 15.40 79.32 15.60L79.32 15.60L79.32 20.36Q79.32 20.56 79.18 20.70Q79.04 20.84 78.84 20.84L78.84 20.84L74.44 20.84Q74.24 20.84 74.24 21.04L74.24 21.04L74.24 26.12Q74.24 26.32 74.44 26.32L74.44 26.32L82.48 26.32Q82.68 26.32 82.82 26.46Q82.96 26.60 82.96 26.80L82.96 26.80L82.96 31.52Q82.96 31.72 82.82 31.86Q82.68 32.00 82.48 32.00L82.48 32.00L68.08 32.00Q67.88 32.00 67.74 31.86Q67.60 31.72 67.60 31.52L67.60 31.52L67.60 4.48Q67.60 4.28 67.74 4.14Q67.88 4.00 68.08 4.00L68.08 4.00L82.48 4.00Q82.68 4.00 82.82 4.14Q82.96 4.28 82.96 4.48L82.96 4.48L82.96 9.20Z M93.12 32.32Q90.68 32.32 88.82 31.38Q86.96 30.44 85.94 28.74Q84.92 27.04 84.92 24.88L84.92 24.88L84.92 23.52Q84.92 23.32 85.06 23.18Q85.20 23.04 85.40 23.04L85.40 23.04L91.04 23.04Q91.24 23.04 91.38 23.18Q91.52 23.32 91.52 23.52L91.52 23.52L91.52 24.56Q91.52 25.52 91.96 26.08Q92.40 26.64 93.12 26.64L93.12 26.64Q93.84 26.64 94.32 26.10Q94.80 25.56 94.80 24.72L94.80 24.72Q94.80 23.80 94.08 23.06Q93.36 22.32 91.20 20.76L91.20 20.76Q89.20 19.32 87.92 18.18Q86.64 17.04 85.72 15.34Q84.80 13.64 84.80 11.40L84.80 11.40Q84.80 9.12 85.82 7.36Q86.84 5.60 88.68 4.64Q90.52 3.68 92.92 3.68L92.92 3.68Q95.36 3.68 97.24 4.66Q99.12 5.64 100.14 7.42Q101.16 9.20 101.16 11.52L101.16 11.52L101.16 12.48Q101.16 12.68 101.02 12.82Q100.88 12.96 100.68 12.96L100.68 12.96L95.08 12.96Q94.88 12.96 94.74 12.82Q94.60 12.68 94.60 12.48L94.60 12.48L94.60 11.36Q94.60 10.48 94.14 9.92Q93.68 9.36 92.92 9.36L92.92 9.36Q92.24 9.36 91.78 9.92Q91.32 10.48 91.32 11.40L91.32 11.40Q91.32 12.40 92.02 13.20Q92.72 14.00 94.80 15.52L94.80 15.52Q97.32 17.40 98.60 18.56Q99.88 19.72 100.60 21.14Q101.32 22.56 101.32 24.48L101.32 24.48Q101.32 28.08 99.06 30.20Q96.80 32.32 93.12 32.32L93.12 32.32Z"/></defs>
  <clipPath id="id-D6z1nYkh10-clip"><use xlink:href="#id-D6z1nYkh10"/></clipPath>
  <g clip-path="url(#id-D6z1nYkh10-clip)"><use xlink:href="#id-D6z1nYkh10" class="background-str" style="stroke-width:1.5;"/></g>
  </g>
</svg>
</g></g></svg></svg>